<svg height="488pt" viewBox="-4 0 488 488.0002" width="488pt" xmlns="http://www.w3.org/2000/svg"><path d="m8 136h464v312c0 17.671875-14.328125 32-32 32h-400c-17.671875 0-32-14.328125-32-32zm0 0" fill="#cca400"/><path d="m388.222656 8h-296.445312c-12.121094 0-23.203125 6.847656-28.625 17.6875l-55.152344 110.3125h464l-55.152344-110.3125c-5.421875-10.839844-16.503906-17.6875-28.625-17.6875zm0 0" fill="#ffda44"/><path d="m288 136h-96l16-128h64zm0 0" fill="#d80027"/><path d="m160 168v56h160v37.039062c-.007812 2.910157 1.144531 5.703126 3.199219 7.761719 2.058593 2.054688 4.851562 3.207031 7.761719 3.199219h2.078124c2.910157.007812 5.703126-1.144531 7.761719-3.199219 2.054688-2.058593 3.207031-4.851562 3.199219-7.761719v-37.039062h8v77.039062c-.007812 2.910157 1.144531 5.703126 3.199219 7.761719 2.058593 2.054688 4.851562 3.207031 7.761719 3.199219h2.078124c2.910157.007812 5.703126-1.144531 7.761719-3.199219 2.054688-2.058593 3.207031-4.851562 3.199219-7.761719v-133.039062zm0 0" fill="#ec008c"/><path d="m112 184v88h128v24h24v-48h-128v-40h24v-24zm0 0" fill="#acabb1"/><path d="m264 456h-24c-8.835938 0-16-7.164062-16-16v-144h56v144c0 8.835938-7.164062 16-16 16zm0 0" fill="#d80027"/><g fill="#231f20"><path d="m479.945312 135.710938c-.035156-.839844-.203124-1.671876-.496093-2.460938-.074219-.179688-.113281-.363281-.191407-.53125-.082031-.167969-.050781-.199219-.097656-.292969l-55.160156-110.3125c-6.738281-13.585937-20.613281-22.160156-35.777344-22.113281h-296.445312c-15.164063-.046875-29.039063 8.527344-35.777344 22.113281l-55.160156 110.3125c-.046875.09375-.054688.199219-.105469.292969-.046875.097656-.109375.351562-.183594.53125-.292969.789062-.4609372 1.621094-.4960935 2.460938 0 .097656-.0546875.183593-.0546875.289062v312c.0273438 22.082031 17.917969 39.972656 40 40h400c22.082031-.027344 39.972656-17.917969 40-40v-312c0-.105469-.054688-.183594-.054688-.289062zm-70.257812-106.445313 49.367188 98.734375h-164l-13.992188-112h107.160156c9.097656-.027344 17.417969 5.117188 21.464844 13.265625zm-144.75-13.265625 14 112h-77.875l14-112zm-194.625 13.265625c4.046875-8.148437 12.367188-13.292969 21.464844-13.265625h107.199218l-14 112h-164.03125zm393.6875 418.734375c0 13.253906-10.746094 24-24 24h-400c-13.253906 0-24-10.746094-24-24v-304h448zm0 0"/><path d="m152 168v8h-40c-4.417969 0-8 3.582031-8 8v88c0 4.417969 3.582031 8 8 8h120v8h-8c-4.417969 0-8 3.582031-8 8v144c0 13.253906 10.746094 24 24 24h24c13.253906 0 24-10.746094 24-24v-144c0-4.417969-3.582031-8-8-8h-8v-40c0-4.417969-3.582031-8-8-8h-120v-24h8v8c0 4.417969 3.582031 8 8 8h152v29.039062c.007812 10.46875 8.492188 18.953126 18.960938 18.960938h2.078124c3.929688.003906 7.761719-1.21875 10.960938-3.503906v24.542968c.007812 10.46875 8.492188 18.953126 18.960938 18.960938h2.078124c10.46875-.007812 18.953126-8.492188 18.960938-18.960938v-133.039062c0-4.417969-3.582031-8-8-8h-216c-4.417969 0-8 3.582031-8 8zm120 272c0 4.417969-3.582031 8-8 8h-24c-4.417969 0-8-3.582031-8-8v-136h40zm-136-240c-4.417969 0-8 3.582031-8 8v40c0 4.417969 3.582031 8 8 8h120v32h-8v-16c0-4.417969-3.582031-8-8-8h-120v-72h32v8zm32-24h200v125.039062c.011719.789063-.296875 1.546876-.855469 2.105469-.558593.558594-1.316406.867188-2.105469.855469h-2.078124c-.789063.011719-1.546876-.296875-2.105469-.855469-.558594-.558593-.867188-1.316406-.855469-2.105469v-77.039062c0-4.417969-3.582031-8-8-8h-8c-4.417969 0-8 3.582031-8 8v37.039062c.011719.789063-.296875 1.546876-.855469 2.105469-.558593.558594-1.316406.867188-2.105469.855469h-2.078124c-.789063.011719-1.546876-.296875-2.105469-.855469-.558594-.558593-.867188-1.316406-.855469-2.105469v-37.039062c0-4.417969-3.582031-8-8-8h-152zm0 0"/><path d="m280 200h72c4.417969 0 8-3.582031 8-8s-3.582031-8-8-8h-72c-4.417969 0-8 3.582031-8 8s3.582031 8 8 8zm0 0"/><path d="m248 200h8c4.417969 0 8-3.582031 8-8s-3.582031-8-8-8h-8c-4.417969 0-8 3.582031-8 8s3.582031 8 8 8zm0 0"/><path d="m256 312c-4.417969 0-8 3.582031-8 8v80c0 4.417969 3.582031 8 8 8s8-3.582031 8-8v-80c0-4.417969-3.582031-8-8-8zm0 0"/></g></svg>