<svg height="488pt" viewBox="-4 0 488 488.0002" width="488pt" xmlns="http://www.w3.org/2000/svg" xmlns:xlink="http://www.w3.org/1999/xlink"><linearGradient id="a"><stop offset="0" stop-color="#003f8a"/><stop offset=".518" stop-color="#00d7df"/><stop offset="1" stop-color="#006df0"/></linearGradient><linearGradient id="b" gradientUnits="userSpaceOnUse" x1="13.6401" x2="497.5521" xlink:href="#a" y1="496.216204" y2="12.304204"/><linearGradient id="c" gradientUnits="userSpaceOnUse" x1="14.3601" x2="498.2721" xlink:href="#a" y1="496.944204" y2="13.032204"/><linearGradient id="d" gradientUnits="userSpaceOnUse" x1="12.7121" x2="496.6241" xlink:href="#a" y1="495.288204" y2="11.376204"/><linearGradient id="e" gradientUnits="userSpaceOnUse" x1="-19.2879" x2="464.6241" xlink:href="#a" y1="463.288204" y2="-20.623796"/><linearGradient id="f" gradientUnits="userSpaceOnUse" x1="66.7121" x2="550.6241" xlink:href="#a" y1="549.288204" y2="65.376204"/><path d="m479.945312 135.710938c-.035156-.839844-.203124-1.671876-.496093-2.460938-.074219-.179688-.113281-.363281-.191407-.53125-.082031-.167969-.050781-.199219-.097656-.292969l-55.160156-110.3125c-6.738281-13.585937-20.613281-22.160156-35.777344-22.113281h-296.445312c-15.164063-.046875-29.039063 8.527344-35.777344 22.113281l-55.160156 110.3125c-.046875.09375-.054688.199219-.105469.292969-.046875.097656-.109375.351562-.183594.53125-.292969.789062-.4609372 1.621094-.4960935 2.460938 0 .097656-.0546875.183593-.0546875.289062v312c.0273438 22.082031 17.917969 39.972656 40 40h400c22.082031-.027344 39.972656-17.917969 40-40v-312c0-.105469-.054688-.183594-.054688-.289062zm-70.257812-106.445313 49.367188 98.734375h-164l-13.992188-112h107.160156c9.097656-.027344 17.417969 5.117188 21.464844 13.265625zm-144.75-13.265625 14 112h-77.875l14-112zm-194.625 13.265625c4.046875-8.148437 12.367188-13.292969 21.464844-13.265625h107.199218l-14 112h-164.03125zm393.6875 418.734375c0 13.253906-10.746094 24-24 24h-400c-13.253906 0-24-10.746094-24-24v-304h448zm0 0" fill="url(#b)"/><path d="m152 168v8h-40c-4.417969 0-8 3.582031-8 8v88c0 4.417969 3.582031 8 8 8h120v8h-8c-4.417969 0-8 3.582031-8 8v144c0 13.253906 10.746094 24 24 24h24c13.253906 0 24-10.746094 24-24v-144c0-4.417969-3.582031-8-8-8h-8v-40c0-4.417969-3.582031-8-8-8h-120v-24h8v8c0 4.417969 3.582031 8 8 8h152v29.039062c.007812 10.46875 8.492188 18.953126 18.960938 18.960938h2.078124c3.929688.003906 7.761719-1.21875 10.960938-3.503906v24.542968c.007812 10.46875 8.492188 18.953126 18.960938 18.960938h2.078124c10.46875-.007812 18.953126-8.492188 18.960938-18.960938v-133.039062c0-4.417969-3.582031-8-8-8h-216c-4.417969 0-8 3.582031-8 8zm120 272c0 4.417969-3.582031 8-8 8h-24c-4.417969 0-8-3.582031-8-8v-136h40zm-136-240c-4.417969 0-8 3.582031-8 8v40c0 4.417969 3.582031 8 8 8h120v32h-8v-16c0-4.417969-3.582031-8-8-8h-120v-72h32v8zm32-24h200v125.039062c.011719.789063-.296875 1.546876-.855469 2.105469-.558593.558594-1.316406.867188-2.105469.855469h-2.078124c-.789063.011719-1.546876-.296875-2.105469-.855469-.558594-.558593-.867188-1.316406-.855469-2.105469v-77.039062c0-4.417969-3.582031-8-8-8h-8c-4.417969 0-8 3.582031-8 8v37.039062c.011719.789063-.296875 1.546876-.855469 2.105469-.558593.558594-1.316406.867188-2.105469.855469h-2.078124c-.789063.011719-1.546876-.296875-2.105469-.855469-.558594-.558593-.867188-1.316406-.855469-2.105469v-37.039062c0-4.417969-3.582031-8-8-8h-152zm0 0" fill="url(#c)"/><path d="m280 200h72c4.417969 0 8-3.582031 8-8s-3.582031-8-8-8h-72c-4.417969 0-8 3.582031-8 8s3.582031 8 8 8zm0 0" fill="url(#d)"/><path d="m248 200h8c4.417969 0 8-3.582031 8-8s-3.582031-8-8-8h-8c-4.417969 0-8 3.582031-8 8s3.582031 8 8 8zm0 0" fill="url(#e)"/><path d="m256 312c-4.417969 0-8 3.582031-8 8v80c0 4.417969 3.582031 8 8 8s8-3.582031 8-8v-80c0-4.417969-3.582031-8-8-8zm0 0" fill="url(#f)"/></svg>